# xmcd
#
# Track frame offsets: 
#        150
#        18772
#        36707
#        62722
#        95942
#        118665
#        162880
#        224862
#
# Disc length: 3904 seconds
#
# Revision: 0
# Processed by: cddbd v1.5.2PL0 Copyright (c) Steve Scherf et al.
# Submitted via: ExactAudioCopy v0.99pb1
#
DISCID=790f3e08
DTITLE=Cream - Star Shines
DYEAR=1968
DGENRE=Blues
TTITLE0=N.S.U.
TTITLE1=Stepping Out
TTITLE2=Train Time
TTITLE3=Toad
TTITLE4=I'm So Glad
TTITLE5=Train Time
TTITLE6=Toad
TTITLE7=Spoonful
EXTD=
EXTT0=
EXTT1=
EXTT2=
EXTT3=
EXTT4=
EXTT5=
EXTT6=
EXTT7=
PLAYORDER=
